# xmcd CD database file
#
# Track frame offsets:
#	150
#	12832
#	20760
#	38930
#	47765
#	58540
#	62580
#	67240
#	69522
#	77302
#
# Disc length: 1270 seconds
#
# Revision: 0
# Processed by: cddbd v1.5.1PL0 Copyright (c) Steve Scherf et al.
# Submitted via: CDex 1.51
#
DISCID=8204f40a
DTITLE=John Lee Hooker - Interview Disc
DYEAR=1997
DGENRE=Blues
TTITLE0=Blues Around The World
TTITLE1=Recording "Dont Look Back"
TTITLE2=Van Morrison as Friend and Producer
TTITLE3=Jimi Hendrix's "Red House"
TTITLE4=Los Lobos and "Dimples"
TTITLE5=Touring
TTITLE6="Rainy Day" and Ballads
TTITLE7=The Great Charles Brown
TTITLE8=John Lee Hooker Legacy
TTITLE9="Dimples"
EXTD=YEAR: 1997
EXTT0=
EXTT1=
EXTT2=
EXTT3=
EXTT4=
EXTT5=
EXTT6=
EXTT7=
EXTT8=
EXTT9=
PLAYORDER=
